<svg width="20" height="20" viewBox="0 0 20 20" fill="none" xmlns="http://www.w3.org/2000/svg">
<path d="M9.488 19.754C9.782 19.911 10.151 19.91 10.445 19.753C18.457 15.449 19.026 7.03998 19.019 4.64898C19.0182 4.45681 18.9615 4.26904 18.8556 4.10865C18.7497 3.94826 18.5994 3.82223 18.423 3.74598L10.373 0.179985C10.2449 0.123514 10.1064 0.094433 9.96639 0.0946053C9.82639 0.0947775 9.68797 0.124199 9.56 0.180985L1.566 3.74698C1.39219 3.82327 1.24398 3.94791 1.13903 4.10606C1.03407 4.26421 0.976782 4.4492 0.973998 4.63898C0.939998 7.01798 1.419 15.445 9.488 19.754ZM6.674 8.29298L8.967 10.586L13.26 6.29298L14.674 7.70698L8.967 13.414L5.26 9.70698L6.674 8.29298Z" fill="#B3B6BA"/>
</svg>
