<svg width="84" height="84" viewBox="0 0 84 84" fill="none" xmlns="http://www.w3.org/2000/svg">
<circle cx="42" cy="42" r="42" fill="#7DCEA0" fill-opacity="0.5"/>
<path d="M42 10C24.3545 10 10 24.3545 10 42C10 59.6455 24.3545 74 42 74C59.6455 74 74 59.6455 74 42C74 24.3545 59.6455 10 42 10Z" fill="#27AE60"/>
<path d="M58.2188 35.2187L40.8853 52.5518C40.3652 53.0718 39.6826 53.3335 39 53.3335C38.3174 53.3335 37.6348 53.0718 37.1147 52.5518L28.4482 43.8853C27.4053 42.8428 27.4053 41.1572 28.4482 40.1147C29.4907 39.0718 31.1758 39.0718 32.2188 40.1147L39 46.896L54.4482 31.4482C55.4907 30.4053 57.1758 30.4053 58.2188 31.4482C59.2612 32.4907 59.2612 34.1758 58.2188 35.2187Z" fill="#FAFAFA"/>
</svg>
